<?xml version="1.0" encoding="utf-8"?>
<!-- Generator: Adobe Illustrator 16.0.0, SVG Export Plug-In . SVG Version: 6.00 Build 0)  -->
<!DOCTYPE svg PUBLIC "-//W3C//DTD SVG 1.1//EN" "http://www.w3.org/Graphics/SVG/1.1/DTD/svg11.dtd">
<svg version="1.1" id="Layer_1" xmlns="http://www.w3.org/2000/svg" xmlns:xlink="http://www.w3.org/1999/xlink" x="0px" y="0px"
	 width="336.167px" height="83.744px" viewBox="0 0 336.167 83.744" enable-background="new 0 0 336.167 83.744"
	 xml:space="preserve">
<g>
	<path fill="#231F20" d="M35.292,83.743c0-24.672,20.007-44.686,44.684-44.686V3.769C35.804,3.769,0,39.57,0,83.743H35.292z"/>
	<path fill="#024C64" d="M79.975,53.258c-16.843,0-30.49,13.641-30.49,30.484h30.449L79.975,53.258z"/>
	<g>
		<g>
			<path fill="#231F20" d="M100.814,15.276h-4.081v-3.213h4.081v-3.33c0-5.144,3.456-8.733,9.351-8.733h0.726v3.213h-0.726
				c-1.055,0-5.797,0.092-5.797,5.52v3.33h6.523v3.213h-6.523v23.021h-3.554V15.276z"/>
			<path fill="#231F20" d="M140.626,25.199c0,7.818-5.994,13.713-13.723,13.713c-7.718,0-13.718-5.896-13.718-13.713
				c0-7.82,5.95-13.758,13.718-13.758C134.678,11.44,140.626,17.378,140.626,25.199z M116.739,25.199
				c0,5.949,4.271,10.499,10.164,10.499c5.902,0,10.175-4.55,10.175-10.499c0-5.944-4.272-10.544-10.175-10.544
				C121.009,14.654,116.739,19.255,116.739,25.199z"/>
			<path fill="#231F20" d="M145.608,12.063h3.355v3.785h0.093c1.441-2.837,4.323-4.454,7.536-4.37v3.552
				c-3.361,0.196-7.437,2.398-7.437,7.729v15.538h-3.547V12.063z"/>
			<path fill="#231F20" d="M160.038,12.063h3.358v4.508h0.1c3.261-4.556,7.863-5.13,10.267-5.13c9.211,0,13.961,7.193,13.961,13.862
				c0,7.819-6,13.61-14.059,13.61c-6.389,0-9.067-3.966-9.974-5.513h-0.098v14.107h-3.556V12.063z M163.396,25.35
				c0,5.798,4.269,10.348,10.269,10.348c5.807,0,10.512-4.502,10.512-10.452c0-5.945-4.561-10.592-10.414-10.592
				C167.666,14.654,163.396,19.448,163.396,25.35z"/>
			<path fill="#231F20" d="M192.75,2.792h3.547v6.051h-3.547V2.792z M192.75,12.063h3.547v26.234h-3.547V12.063z"/>
			<path fill="#231F20" d="M228.099,30.611c-1.771,3.904-5.568,8.301-12.764,8.301c-8.971,0-14.006-6.907-14.006-13.764
				c0-6.277,4.842-13.708,14.006-13.708c6.09,0,10.746,3.396,12.809,8.578h-3.975c-2.639-5.182-7.629-5.364-8.834-5.364
				c-6.088,0-10.459,4.647-10.459,10.452c0,5.995,4.75,10.591,10.459,10.591c3.602,0,6.957-1.77,8.834-5.086H228.099z"/>
		</g>
	</g>
	<g>
		<g>
			<path fill="#024C64" d="M126.368,59.899v2.111h-4.446v15.128h-2.331V62.01h-4.445v-2.111H126.368z"/>
			<path fill="#024C64" d="M138.361,69.341c0.29,3.44,2.931,6.091,6.555,6.091c2.716,0,4.954-1.551,6.015-3.895h2.43
				c-1.387,3.697-4.536,6.005-8.445,6.005c-5.073,0-8.982-3.847-8.982-9.01c0-4.251,3.127-9.038,8.982-9.038
				c6.519,0,8.884,5.422,8.85,9.847H138.361z M151.251,67.237c-0.664-3.491-3.346-5.636-6.335-5.636
				c-3.305,0-5.988,2.36-6.555,5.636H151.251z"/>
			<path fill="#024C64" d="M169.109,68.381l-5.89-8.482h2.739l4.571,6.643l4.566-6.643h2.74l-5.92,8.482l5.92,8.757h-2.74
				l-4.566-6.911l-4.571,6.911h-2.739L169.109,68.381z"/>
			<path fill="#024C64" d="M190.277,59.899v15.129h9.703V59.899h2.334v15.129h2.811v6.517h-2.34v-4.406h-14.838V59.899H190.277z"/>
			<path fill="#024C64" d="M217.111,69.341c0.285,3.44,2.939,6.091,6.559,6.091c2.713,0,4.951-1.551,6.02-3.895h2.422
				c-1.387,3.697-4.537,6.005-8.441,6.005c-5.074,0-8.977-3.847-8.977-9.01c0-4.251,3.117-9.038,8.977-9.038
				c6.525,0,8.889,5.422,8.857,9.847H217.111z M230.005,67.237c-0.664-3.491-3.344-5.636-6.336-5.636
				c-3.309,0-5.982,2.36-6.559,5.636H230.005z"/>
			<path fill="#024C64" d="M246.035,59.899v7.338h9.645v-7.338h2.334v17.239h-2.334v-7.797h-9.645v7.797h-2.33V59.899H246.035z"/>
			<path fill="#024C64" d="M279.458,59.899v2.111h-4.439v15.128h-2.336V62.01h-4.434v-2.111H279.458z"/>
			<path fill="#024C64" d="M289.693,59.899h2.211v2.968h0.055c2.145-2.987,5.162-3.372,6.746-3.372c6.056,0,9.171,4.726,9.171,9.1
				c0,5.139-3.94,8.948-9.233,8.948c-4.188,0-5.953-2.616-6.553-3.618h-0.063v9.264h-2.334V59.899z M291.904,68.614
				c0,3.825,2.797,6.818,6.738,6.818c3.814,0,6.901-2.97,6.901-6.879c0-3.894-2.985-6.952-6.839-6.952
				C294.701,61.601,291.904,64.747,291.904,68.614z"/>
		</g>
	</g>
	<g>
		<g>
			<path fill="#024C64" d="M258.253,22.034c0-3.887-3.121-6.758-6.881-6.758c-3.072,0-5.615,0.571-6.951,3.537l-3.178-0.992
				c1.855-3.744,5.793-5.04,10.354-5.04c5.211,0,10.191,3.887,10.191,8.974v16.542h-3.299v-2.541
				c-1.973,1.679-5.152,3.219-9.49,3.219c-5.379,0-10.191-2.502-10.191-7.351c0-3.834,3.938-7.29,10.48-7.714
				c3.703-0.245,7.002-0.328,8.965-0.823V22.034z M258.253,25.35c-1.963,0.522-5.373,0.522-8.441,0.865
				c-5.563,0.578-7.355,3.106-7.355,5.408c0,2.787,2.371,4.849,6.832,4.849c4.223,0,7.002-1.631,8.965-3.88V25.35z"/>
			<path fill="#024C64" d="M290.431,13.457v24.84h-3.295v-4.028c-2.137,3.02-5.324,4.706-9.26,4.706
				c-4.805,0-8.967-3.08-8.967-8.633V13.457h3.59v16.542c0,4.126,2.719,6.474,6.127,6.474c3.885,0,6.543-2.675,8.217-6V13.457
				H290.431z"/>
			<path fill="#024C64" d="M308.26,37.775c-1.156,0.758-2.605,1.199-4.224,1.199c-3.531,0-5.787-1.638-5.787-4.943V15.943h-3.586
				v-2.486h3.586V6.542h3.594v6.915h5.964v2.486h-5.964v18.088c0,1.771,1.268,2.347,2.888,2.347c0.924,0,1.514-0.281,2.084-0.664
				L308.26,37.775z"/>
			<path fill="#024C64" d="M310.577,25.824c0-7.483,5.322-13.043,12.789-13.043c7.469,0,12.801,5.561,12.801,13.043
				c0,7.484-5.332,13.15-12.801,13.15C315.844,38.974,310.577,33.308,310.577,25.824z M323.366,15.276
				c-5.379,0-9.084,4.318-9.084,10.548c0,5.909,3.705,10.648,9.084,10.648c5.387,0,9.094-4.739,9.094-10.648
				C332.459,19.594,328.752,15.276,323.366,15.276z"/>
		</g>
	</g>
</g>
</svg>
